<svg version="1.2" baseProfile="tiny" xmlns="http://www.w3.org/2000/svg" viewBox="0 0 360 360"><path fill="#B22D6A" d="M252.35 77.22c-21.24-14.99-46.26-22.91-72.36-22.91-9.65 0-19.25 1.09-28.55 3.25l-9.45-40.73c12.39-2.88 25.18-4.33 38-4.33 34.78 0 68.14 10.57 96.47 30.56l-24.11 34.16z"/><path fill="#9F2A61" d="M179.98 347.5c-26.45 0-52.8-6.33-76.21-18.31l19.05-37.23c17.79 9.1 37.02 13.71 57.16 13.71s39.38-4.61 57.16-13.71l19.05 37.23c-23.4 11.98-49.75 18.31-76.21 18.31z"/><path fill="#B23556" d="M290.49 154.72c-8.97-39.42-38.58-71.27-77.28-83.11l13.6-44.43c54.57 16.71 96.32 61.63 108.98 117.23l-45.3 10.31z"/><path fill="#A4334B" d="M141.22 333.15C95.23 321.96 57.05 291 36.49 248.23l41.87-20.13c14.51 30.19 41.43 52.02 73.85 59.92l-10.99 45.13z"/><path fill="#BF0411" d="M127.77 303.6C78 282.55 45.84 234.03 45.84 180h15.8c0 47.67 28.37 90.48 72.28 109.05l-6.15 14.55z"/><path fill="#C43367" d="M179.98 314.14c-73.97 0-134.14-60.18-134.14-134.14h15.8c0 65.26 53.09 118.35 118.35 118.35v15.79zM314.13 180h-15.8c0-65.26-53.09-118.35-118.35-118.35v-15.8c73.97.01 134.15 60.18 134.15 134.15z"/><path fill="#9E2A5F" d="M299.27 280.36l-14.22-11.97c20.79-24.68 32.23-56.07 32.23-88.39 0-16.51-2.9-32.64-8.61-47.96l17.41-6.49c6.49 17.4 9.78 35.72 9.78 54.45.01 36.7-12.99 72.34-36.59 100.36z"/><path fill="#AA2C64" d="M62.47 122.92l-22.82-10.43c7.88-17.25 18.73-32.85 32.25-46.36 26.49-26.49 61.6-42.83 98.87-46.03l2.14 25c-31.39 2.69-60.96 16.46-83.27 38.77-11.4 11.39-20.54 24.53-27.17 39.05z"/><path fill="#A32B60" d="M114.63 314.7c-16.89-7.72-32.17-18.35-45.42-31.59-25.95-25.95-41.96-60.34-45.09-96.85l18.52-1.59c2.75 32.15 16.86 62.44 39.71 85.3 11.67 11.67 25.13 21.03 40 27.83l-7.72 16.9z"/></svg>