<svg version="1.2" baseProfile="tiny" xmlns="http://www.w3.org/2000/svg" viewBox="0 0 360 360"><path fill="#3B68AC" d="M179.317 329.525l123.327-65.398 13.062 24.632-123.327 65.398zM31.273 75.881l123.328-65.398 13.062 24.632-123.328 65.398zM23.96 153.16h27.88v103.88H23.96zm284.03-24.6h23.63v129.13h-23.63z"/><path fill="#3157C3" d="M49.13 161.37l-28.62-.99 2.37-68.93L85.15 55.5l14.32 24.81-48.52 28.01z"/><path fill="#477EF4" d="M62.52 203.36h-15.8v-95.95l58.31-33.67 7.9 13.69-50.41 29.1z"/><path fill="#3157C3" d="M254.42 307.85l-17.71-30.66 59.98-34.63 2.25-65.6 35.39 1.22-2.92 85.22z"/><path fill="#477EF4" d="M247.48 285.1l-7.9-13.68 50.41-29.11v-86.83h15.8v95.95zm68.57-179.06l-139.8-80.71-22.3 12.88-7.9-13.68 30.2-17.44 147.7 85.27z"/><path fill="#1291C4" d="M177.18 346.97l-66.51-38.4 10.22-17.7 56.29 32.5 23.96-13.83 10.22 17.7z"/></svg>