<svg version="1.2" baseProfile="tiny" xmlns="http://www.w3.org/2000/svg" viewBox="0 0 360 360"><path fill="#67AD7C" d="M198.55 113.142l23.417-13.836 91.439 154.747-23.417 13.836z"/><path fill="#7DD1AC" d="M168.14 320.62H4.33l44.11-77.93 21.94 12.42-22.81 40.29h120.57z"/><path fill="#67AD7C" d="M53.452 255.026l55.291-94.072 13.199 7.757-55.291 94.072zM154.56 292.26h139.65v19.81H154.56z"/><path fill="#92F9BC" d="M222.39 153.56l-46.66-79.81-40.77 69.63-13.26-7.66 54.03-92.58 59.92 102.77zM119.63 309.81H24.1l49.95-86.52 13.26 7.65-36.7 63.57h69.02z"/><path fill="#7DD1AC" d="M356.49 323.13H231.7v-25.21h81.12l-20.3-35.17 21.83-12.61z"/><path fill="#92F9BC" d="M335.37 309.81H197.82v-15.3h111.04l-36.7-63.57 13.25-7.65z"/></svg>