<svg xmlns="http://www.w3.org/2000/svg" xmlns:xlink="http://www.w3.org/1999/xlink" viewBox="0 0 1044.4 869.6"><defs><path id="a" d="M0 0h1044.4v869.6H0z"/></defs><clipPath id="b"><use xlink:href="#a" overflow="visible"/></clipPath><path d="M126.8 179.2C54.6 262.3 8.2 368.5 0 485.2c-.5 7.5 5.4 13.8 12.9 13.8h263.3c6.4 0 11.9-4.7 12.8-11.1 5.8-39.5 21.3-75.7 44.1-106.3 3.8-5.1 3.3-12.3-1.2-16.8L145.7 178.6c-5.3-5.3-14-5.1-18.9.6m772-.6L712.6 364.7c-4.5 4.5-5.1 11.7-1.2 16.8 22.8 30.6 38.3 66.9 44.1 106.3.9 6.4 6.4 11.1 12.8 11.1h263.3c7.5 0 13.4-6.3 12.9-13.8-8.2-116.7-54.6-222.8-126.7-306-5.1-5.6-13.8-5.8-19-.5M545.5 12.9v263.3c0 6.4 4.7 11.9 11.1 12.8 39.5 5.8 75.7 21.3 106.3 44.1 5.1 3.8 12.3 3.3 16.8-1.2l186.2-186.2c5.3-5.3 5-14-.6-18.9C782.1 54.6 675.9 8.2 559.2 0c-7.4-.5-13.7 5.5-13.7 12.9M276.2 545.5H12.9c-7.5 0-13.4 6.3-12.9 13.8 8.2 116.7 54.6 222.8 126.7 306 4.9 5.6 13.6 5.9 18.9.6l186.2-186.2c4.5-4.5 5.1-11.7 1.2-16.8-22.8-30.6-38.3-66.9-44.1-106.3-.8-6.4-6.3-11.1-12.7-11.1m-97.6-399.8l186.2 186.2c4.5 4.5 11.7 5.1 16.8 1.2 30.6-22.8 66.9-38.3 106.3-44.1 6.4-.9 11.1-6.4 11.1-12.8V12.9c0-7.5-6.3-13.4-13.8-12.9-116.7 8.2-222.8 54.6-306 126.7-5.7 5-5.9 13.7-.6 19" clip-path="url(#b)" fill="#19f662"/></svg>