<svg xmlns="http://www.w3.org/2000/svg" viewBox="0 0 335.6 694.9"><path d="M126.8 4.4C54.6 87.6 8.2 193.7 0 310.4c-.5 7.5 5.4 13.8 12.9 13.8h263.3c6.4 0 11.9-4.7 12.8-11.1 5.8-39.5 21.3-75.7 44.1-106.3 3.8-5.1 3.3-12.3-1.2-16.8L145.7 3.8c-5.3-5.3-14-5-18.9.6m149.4 366.3H12.9C5.4 370.7-.5 377 0 384.5c8.2 116.7 54.6 222.8 126.7 306 4.9 5.6 13.6 5.9 18.9.6l186.2-186.2c4.5-4.5 5.1-11.7 1.2-16.8-22.8-30.6-38.3-66.9-44.1-106.3-.8-6.4-6.3-11.1-12.7-11.1" clip-path="url(#SVGID_2_)" fill="#19f662"/></svg>