<?xml version="1.0" encoding="utf-8"?>
<!-- Generator: Adobe Illustrator 23.0.0, SVG Export Plug-In . SVG Version: 6.00 Build 0)  -->
<svg version="1.2" baseProfile="tiny" id="OBJECTS" xmlns="http://www.w3.org/2000/svg" xmlns:xlink="http://www.w3.org/1999/xlink"
	 x="0px" y="0px" viewBox="0 0 360 360" xml:space="preserve">
<g>
	<g>
		
			<rect x="177.7" y="295.21" transform="matrix(0.8835 -0.4685 0.4685 0.8835 -115.9871 151.9593)" fill="#3B68AC" width="139.59" height="27.88"/>
	</g>
	<g>
		
			<rect x="29.67" y="41.56" transform="matrix(0.8835 -0.4685 0.4685 0.8835 -14.411 53.0632)" fill="#3B68AC" width="139.59" height="27.88"/>
	</g>
	<g>
		<rect x="23.96" y="153.16" fill="#3B68AC" width="27.88" height="103.88"/>
	</g>
	<g>
		<rect x="307.99" y="128.56" fill="#3B68AC" width="23.63" height="129.13"/>
	</g>
	<g>
		<g>
			<g>
				<polygon fill="#3157C3" points="49.13,161.37 20.51,160.38 22.88,91.45 85.15,55.5 99.47,80.31 50.95,108.32 				"/>
			</g>
			<g>
				<polygon fill="#477EF4" points="62.52,203.36 46.72,203.36 46.72,107.41 105.03,73.74 112.93,87.43 62.52,116.53 				"/>
			</g>
			<g>
				<polygon fill="#3157C3" points="254.42,307.85 236.71,277.19 296.69,242.56 298.94,176.96 334.33,178.18 331.41,263.4 				"/>
			</g>
			<g>
				<polygon fill="#477EF4" points="247.48,285.1 239.58,271.42 289.99,242.31 289.99,155.48 305.79,155.48 305.79,251.43 				"/>
			</g>
			<g>
				<polygon fill="#477EF4" points="316.05,106.04 176.25,25.33 153.95,38.21 146.05,24.53 176.25,7.09 323.95,92.36 				"/>
			</g>
			<g>
				<polygon fill="#1291C4" points="177.18,346.97 110.67,308.57 120.89,290.87 177.18,323.37 201.14,309.54 211.36,327.24 				"/>
			</g>
		</g>
	</g>
</g>
</svg>
