<?xml version="1.0" encoding="utf-8"?>
<!-- Generator: Adobe Illustrator 23.0.0, SVG Export Plug-In . SVG Version: 6.00 Build 0)  -->
<svg version="1.2" baseProfile="tiny" id="OBJECTS" xmlns="http://www.w3.org/2000/svg" xmlns:xlink="http://www.w3.org/1999/xlink"
	 x="0px" y="0px" viewBox="0 0 360 360" xml:space="preserve">
<g>
	<g>
		
			<rect x="242.39" y="93.73" transform="matrix(0.8609 -0.5087 0.5087 0.8609 -57.8034 155.7541)" fill="#67AD7C" width="27.2" height="179.75"/>
	</g>
	<g>
		<g>
			<polygon fill="#7DD1AC" points="168.14,320.62 4.33,320.62 48.44,242.69 70.38,255.11 47.57,295.4 168.14,295.4 			"/>
		</g>
		<g>
			
				<rect x="33.14" y="204.21" transform="matrix(0.5067 -0.8621 0.8621 0.5067 -139.3896 180.1227)" fill="#67AD7C" width="109.12" height="15.31"/>
		</g>
		<g>
			<path fill="none" stroke="#A0262A" stroke-width="34" stroke-miterlimit="10" d="M104.91,174.81"/>
		</g>
		<g>
			<rect x="154.56" y="292.26" fill="#67AD7C" width="139.65" height="19.81"/>
		</g>
		<g>
			<polygon fill="#92F9BC" points="222.39,153.56 175.73,73.75 134.96,143.38 121.7,135.72 175.73,43.14 235.65,145.91 			"/>
		</g>
		<g>
			<path fill="none" stroke="#C03231" stroke-width="17" stroke-miterlimit="10" d="M110.33,99.55"/>
		</g>
		<g>
			<polygon fill="#92F9BC" points="119.63,309.81 24.1,309.81 74.05,223.29 87.31,230.94 50.61,294.51 119.63,294.51 			"/>
		</g>
		<g>
			<path fill="none" stroke="#C03231" stroke-width="17" stroke-miterlimit="10" d="M119.63,302.16"/>
		</g>
		<g>
			<polygon fill="#7DD1AC" points="356.49,323.13 231.7,323.13 231.7,297.92 312.82,297.92 292.52,262.75 314.35,250.14 			"/>
		</g>
		<g>
			<path fill="none" stroke="#C03231" stroke-width="17" stroke-miterlimit="10" d="M197.82,302.16"/>
		</g>
		<g>
			<polygon fill="#92F9BC" points="335.37,309.81 197.82,309.81 197.82,294.51 308.86,294.51 272.16,230.94 285.41,223.29 			"/>
		</g>
		<g>
			<path fill="none" stroke="#C03231" stroke-width="17" stroke-miterlimit="10" d="M278.78,227.11"/>
		</g>
		<g>
			<path fill="none" stroke="#C03231" stroke-width="17" stroke-miterlimit="10" d="M211.02,109.74"/>
		</g>
	</g>
</g>
</svg>
