<?xml version="1.0" encoding="utf-8"?>
<!-- Generator: Adobe Illustrator 23.0.0, SVG Export Plug-In . SVG Version: 6.00 Build 0)  -->
<svg version="1.2" baseProfile="tiny" id="OBJECTS" xmlns="http://www.w3.org/2000/svg" xmlns:xlink="http://www.w3.org/1999/xlink"
	 x="0px" y="0px" viewBox="0 0 360 360" xml:space="preserve">
<g>
	<g>
		<rect x="299.5" y="74.11" fill="#974926" width="27.88" height="139.59"/>
	</g>
	<g>
		<rect x="93.41" y="295.68" fill="#A04D29" width="179.75" height="39.03"/>
	</g>
	<g>
		<rect x="93.41" y="25.29" fill="#A34E29" width="179.75" height="33.45"/>
	</g>
	<g>
		<polygon fill="#BC763B" points="324.12,111.96 302.75,111.96 302.75,55.49 213.23,55.49 213.23,34.12 324.12,34.12 		"/>
	</g>
	<g>
		<polygon fill="#DD773B" points="303.64,135.77 287.84,135.77 287.84,69.02 174.63,69.02 174.63,53.22 303.64,53.22 		"/>
	</g>
	<g>
		<polygon fill="#BC763B" points="143.52,323.02 32.62,323.02 32.62,245.18 54,245.18 54,301.65 143.52,301.65 		"/>
	</g>
	<g>
		<polygon fill="#DD773B" points="182.12,303.92 53.11,303.92 53.11,221.37 68.9,221.37 68.9,288.12 182.12,288.12 		"/>
	</g>
	<g>
		<path fill="none" stroke="#A0262A" stroke-width="43" stroke-miterlimit="10" d="M216.02,42.02"/>
	</g>
	<g>
		<path fill="none" stroke="#A0262A" stroke-width="43" stroke-miterlimit="10" d="M316.23,109.17"/>
	</g>
	<g>
		<polygon fill="#BC763B" points="51.42,116.67 34.69,116.67 34.69,33.66 150.51,33.66 150.51,50.38 51.42,50.38 		"/>
	</g>
</g>
</svg>
