<svg version="1.1" id="Слой_1" xmlns="http://www.w3.org/2000/svg" x="0" y="0" width="120" height="50" xml:space="preserve"><style>.st0{fill:#fff}</style><path class="st0" d="M40.3 0l-2.2 8.1H19.5l-1.1 4.1h12.7c4 0 5.9 1.4 5.9 4.3 0 .7-.5 2.8-1.4 6.4-.9 3.2-2.1 5.4-3.6 6.7-1.5 1.2-3.9 1.9-7.2 1.9H3.7L6 22.9h20l1.1-4.1H14.4c-2.5 0-4.2-.4-5.1-1.1-.6-.6-1-1.4-1-2.6 0-.7.5-3.1 1.6-7 .8-3 2-5.1 3.6-6.3C15.1.6 17.4 0 20.6 0h19.7zM77.6 22.9l-2.3 8.5H50.2L58.6 0h9.9l-6.2 22.9h15.3zM116.7 0l-13 12.3c5.2 0 7.9 1.9 7.9 5.7 0 .9-.2 2-.5 3.2l-2.7 10.2h-9.7l3.4-12.8H91.2l-3.4 12.8H78L86.4 0h9.7l-3.3 12.3H94L107 0h9.7zM8.9 50v-1.5H4.4V50H3.3v-2.6H4c.4-.4.4-.9.5-1.6l.4-8.2h4.4v9.8h.7V50H8.9zm-3.3-4.2c0 .8-.2 1.2-.5 1.6H8v-8.7H6l-.4 7.1zM27.8 43.5l-1.6 5h-1.3V37.6H26v8.1l1.1-3.4 1.6-4.7H30v10.9h-1.1v-8.6l-1.1 3.6zM49.9 40.3v.3c0 1.1-.4 1.9-1.3 2.3.9.3 1.3 1.1 1.3 2.2v.9c0 1.6-.8 2.7-2.5 2.7S45 47.6 45 46v-1.1h1.1V46c0 1 .4 1.6 1.3 1.6s1.3-.6 1.3-1.7V45c0-1.1-.5-1.6-1.4-1.6h-.5v-1.1h.6c.8 0 1.3-.5 1.3-1.5v-.5c0-1.1-.4-1.7-1.3-1.7s-1.3.6-1.3 1.6v.7H45v-.7c0-1.7.8-2.7 2.4-2.7 1.7 0 2.5 1.1 2.5 2.8zM66.1 46.3l-.4 2.2h-1.1l2.1-10.9h1.8l2.1 10.9h-1.2l-.4-2.2h-2.9zm.1-1h2.4L67.4 39l-1.2 6.3zM88.1 43.4l-1.6 5.1h-1.3V37.6h1.1v8.1l1-3.2 1.7-4.9h1.3v10.9h-1.1v-8.6l-1.1 3.5zm1.4-8c0 .9-.6 1.5-1.7 1.5-1 0-1.6-.6-1.7-1.5h.8c0 .6.4.8.9.8s.9-.2.9-.8h.8zM106.6 43.6v4.9h-1.2V37.6h1.2v4.9h2.7v-4.9h1.2v10.9h-1.2v-4.9h-2.7z"/><g><path class="st0" d="M42 10.8l-5.5 20.6h9.9l5.5-20.6zM52.6 8.1L54.8 0h-9.9l-2.1 8.1z"/></g></svg>