<?xml version="1.0" encoding="utf-8"?>
<!-- Generator: Adobe Illustrator 22.1.0, SVG Export Plug-In . SVG Version: 6.00 Build 0)  -->
<svg version="1.1" id="Слой_1" xmlns="http://www.w3.org/2000/svg" xmlns:xlink="http://www.w3.org/1999/xlink" x="0px" y="0px"
	 viewBox="0 0 335.6 694.9" style="enable-background:new 0 0 335.6 694.9;" xml:space="preserve">
<style type="text/css">
	.st0{clip-path:url(#SVGID_2_);fill:#19F662;}
</style>
<g>
	<path class="st0" d="M126.8,4.4C54.6,87.6,8.2,193.7,0,310.4c-0.5,7.5,5.4,13.8,12.9,13.8h263.3c6.4,0,11.9-4.7,12.8-11.1
		c5.8-39.5,21.3-75.7,44.1-106.3c3.8-5.1,3.3-12.3-1.2-16.8L145.7,3.8C140.4-1.5,131.7-1.2,126.8,4.4"/>
	<path class="st0" d="M276.2,370.7H12.9c-7.5,0-13.4,6.3-12.9,13.8c8.2,116.7,54.6,222.8,126.7,306c4.9,5.6,13.6,5.9,18.9,0.6
		l186.2-186.2c4.5-4.5,5.1-11.7,1.2-16.8c-22.8-30.6-38.3-66.9-44.1-106.3C288.1,375.4,282.6,370.7,276.2,370.7"/>
</g>
</svg>
